<?xml version="1.0" encoding="utf-8"?>
<svg xmlns="http://www.w3.org/2000/svg" height="160" width="240" viewBox="-28.64775 -40.86825 248.2805 245.2095">
  <defs>
    <clipPath clipPathUnits="userSpaceOnUse" id="a">
      <path d="M.082 133.8h611.15v523.14H.082z"/>
    </clipPath>
    <clipPath clipPathUnits="userSpaceOnUse" id="b">
      <path d="M0 0h612v792H0z"/>
    </clipPath>
  </defs>
  <g clip-path="url(#a)" transform="matrix(.3125 0 0 -.3125 -.026 205.286)">
    <path fill="#d91920" d="M 94.788 209.57 C 94.291 198.137 98.592 187.591 107.57 178.212 C 121.302 163.87 146.444 152.126 180.278 144.251 C 209.471 137.459 244.401 133.716 278.639 133.716 L 279.893 133.716 C 321.447 133.846 381.433 138.359 431.183 159.158 C 466.615 173.966 485.684 192.266 488.286 213.358 C 490.148 228.471 486.151 241.869 467.661 250.689 C 467.661 250.689 466.135 250.842 465.276 249.333 C 461.642 242.916 458.074 237.109 452.882 230.358 C 450.941 227.838 453.226 226.049 453.226 226.049 C 459.86 220.907 460.673 213.947 455.149 207.326 C 450.259 201.474 443.24 193.305 414.003 181.7 C 389.901 172.136 347.391 160.693 281.773 160.511 L 280.493 160.51 C 204.15 160.51 146.643 178.896 129.283 197.059 C 125.653 200.862 123.889 204.541 124.046 208.001 C 124.509 218.882 139.622 224.925 166.595 225.022 L 167.065 225.022 C 174.355 225.022 181.655 224.53 188.889 223.668 C 194.129 223.022 199.348 222.209 204.536 221.231 C 216.1 219.015 227.336 215.995 237.904 212.585 L 237.904 212.613 C 253.137 207.623 265.012 202.303 272.978 198.936 C 277.553 196.996 280.58 195.72 282.245 195.22 C 284.885 194.42 287.395 194.089 289.705 194.243 L 289.839 194.251 C 296.272 194.687 301.259 198.998 302.539 205.234 C 303.652 210.647 301.999 216.537 295.756 219.437 C 279.31 227.073 249.971 239.357 215.345 247.265 C 205.645 249.552 195.948 251.366 186.487 252.518 L 186.339 252.537 L 186.342 252.534 C 179.06 253.411 171.918 253.9 165.035 253.9 L 164.645 253.9 C 122.785 253.76 96.015 236.78 94.824 209.56 M 163.908 309.62 C 163.908 309.62 164.154 307.106 162.482 307.106 L 156.696 307.106 C 154.16 307.106 154.195 305.749 154.195 304.643 L 154.195 282.29 C 154.195 282.29 153.89 279.967 157.12 279.967 L 206.63 279.967 C 208.219 279.967 209.691 280.872 209.691 283.253 L 209.691 304.443 C 209.691 306.713 209.571 307.389 206.745 307.389 L 202.211 307.389 C 200.058 307.389 198.698 307.278 198.698 309.429 L 198.698 326.761 C 198.698 334.468 201.358 339.176 205.384 343.203 C 209.413 347.231 217.16 351.739 224.95 352.396 C 232.324 353.025 235.623 352.231 238.873 351.928 C 240.904 351.739 242.046 352.694 242.046 354.308 L 242.046 383.095 C 242.046 384.795 241.602 386.457 238.079 386.836 C 234.556 387.209 220.442 385.347 209.691 377.994 C 200.375 371.62 196.319 360.996 195.523 359.862 C 194.731 358.729 193.37 358.277 193.37 360.199 L 193.37 381.622 C 193.37 383.774 192.627 385.348 190.086 385.348 L 157.106 385.348 C 155.066 385.348 154.158 385.294 154.158 382.569 L 154.158 360.542 C 154.158 358.277 156.428 358.277 156.428 358.277 C 156.428 358.277 159.031 358.16 161.072 358.16 C 163.112 358.16 163.907 357.595 163.907 355.217 L 163.907 309.62 L 163.908 309.62 Z M 282.998 332.224 C 282.998 346.277 289.23 357.823 303.792 357.823 C 318.358 357.823 324.59 345.937 324.59 331.418 C 324.59 316.893 315.52 307.616 303.167 307.616 C 290.816 307.616 282.997 318.172 282.997 332.224 M 239.705 431.314 L 239.705 409.554 C 239.705 408.037 240.482 407.349 242.565 407.349 L 246.675 407.349 C 249.565 407.349 249.735 406.496 249.735 403.435 L 249.735 311.299 C 249.735 307.219 249.395 307.106 246.505 307.106 L 240.555 307.106 C 237.402 307.106 236.985 306.03 236.985 303.312 L 236.985 283.59 C 236.985 280.713 238.176 279.965 241.064 279.965 L 276.254 279.965 C 279.332 279.965 279.654 281.211 279.654 283.252 L 279.654 289.54 C 279.654 291.581 282.147 290.388 283.479 288.914 C 284.809 287.444 289.909 280.871 307.137 279.357 C 321.228 278.127 336.831 281.89 346.01 293.789 C 353.05 302.913 358.475 311.697 358.475 335.043 C 358.475 358.385 347.595 373.119 336.601 379.808 C 325.611 386.493 310.964 387.853 301.616 385.347 C 293.23 383.095 285.763 377.135 284.696 375.84 C 283.658 374.572 281.636 373.575 281.636 375.727 L 281.636 430.917 C 281.636 433.751 280.389 434.543 278.632 434.543 L 242.565 434.543 C 239.911 434.543 239.705 433.526 239.705 431.313 M 83.315 347.723 L 60.228 347.653 C 56.828 347.653 57.222 349.674 57.788 351.033 C 58.356 352.394 68.233 382.169 68.912 384.098 C 69.592 386.023 71.52 387.268 72.644 384.548 C 73.77 381.829 84.324 352.824 85.004 351.235 C 85.684 349.649 85.584 347.725 83.314 347.725 M 148.274 282.865 L 148.274 303.266 C 148.274 304.8 146.791 307.062 144.266 307.062 C 143.34 307.062 138.993 307.088 138.204 307.088 C 133.899 307.088 132.882 311.046 132.882 311.046 L 91.462 422.286 C 91.462 422.286 90.479 426.861 86.506 430.709 C 82.533 434.561 73.444 434.526 73.444 434.526 L 37.422 434.526 C 35.461 434.526 34.021 432.826 34.021 431.309 C 34.021 429.791 33.909 412.882 33.909 411.068 C 33.909 409.255 34.843 407.442 38.157 407.442 L 47.055 407.442 C 49.975 407.442 49.9 405.304 48.657 403.037 C 47.408 400.77 13.164 310.359 12.728 309.443 C 11.421 306.703 9.618 307.088 9.618 307.088 L 2.866 307.088 C -0.142 307.088 0.034 304.141 0.034 304.141 L 0.034 283.571 C 0.034 283.571 0.024 279.948 3.544 279.948 L 54.56 279.948 C 57.848 279.948 57.924 280.808 57.924 283.121 L 57.924 304.367 C 57.924 306.745 56.601 307.087 54.448 307.087 L 45.343 307.087 C 42.623 307.087 41.858 308.847 42.348 310.499 C 42.545 311.158 45.498 319.547 46.403 321.925 C 47.309 324.304 47.763 324.42 50.371 324.42 L 90.231 324.49 C 94.423 324.49 94.651 323.244 95.218 321.77 C 95.783 320.294 97.969 314.187 98.491 312.7 C 100.011 308.371 98.606 307.087 96.791 307.087 L 87.841 307.087 C 86.481 307.087 84.553 306.38 84.553 303.917 L 84.553 282.444 C 84.553 280.741 85.355 279.948 88.18 279.948 L 145.737 279.948 C 147.522 279.948 148.275 281.762 148.275 282.864 M 426.095 414.794 C 425.883 493.534 414.296 553.334 392.577 598.024 C 374.395 635.45 349.567 656.914 324.474 656.914 C 295.845 656.826 287.128 633.402 286.522 621.025 C 286.038 610.285 292.094 598.313 297.952 586.733 C 302.479 577.786 306.752 569.333 306.506 563.903 C 306.442 562.33 305.289 558.007 302.166 557.996 C 299.226 557.993 291.604 570.336 286.563 578.506 C 274.834 597.497 260.237 621.14 241.849 621.14 C 235.901 621.133 214.735 617.888 192.063 576.315 C 173.075 541.503 161.821 492.433 154.159 414.985 C 154.284 413.772 155.077 411.485 157.199 411.485 L 180.254 411.485 C 182.993 411.485 184.002 413.44 184.132 414.515 C 189.405 459.15 192.302 487.088 198.388 511.476 C 212.894 569.656 233.676 585.71 239.35 585.719 C 246.377 585.719 253.252 574.321 260.534 562.259 C 261.575 560.536 262.624 558.793 263.694 557.05 C 273.147 541.657 284.744 525.237 302.821 525.237 C 321.303 525.281 335.096 543.995 335.918 560.767 C 336.723 578.948 328.818 592.469 323.044 602.345 C 319.741 607.995 316.895 612.872 317.047 616.301 C 317.28 621.714 321.043 622.857 324.157 622.864 C 334.769 622.864 352.592 611.828 367.885 580.717 C 391.802 532.069 396.88 466.117 396.933 414.697 C 397.083 413.587 398.098 411.484 400.836 411.484 L 422.766 411.484 C 425.143 411.484 425.983 413.609 426.096 414.799 M 483.098 385.339 L 432.328 385.339 C 429.437 385.339 429.157 384.219 429.157 381.499 L 429.157 361.44 C 429.157 359.246 429.831 358.266 432.439 358.266 L 436.294 358.266 C 437.992 358.266 440.034 358.151 439.013 355.432 C 437.993 352.712 425.179 312.029 424.503 309.875 C 423.826 307.722 418.766 307.949 417.862 310.215 C 416.955 312.48 406.416 353.616 405.847 355.657 C 405.283 357.697 405.492 357.813 407.437 357.813 C 409.377 357.813 412.765 357.36 412.765 360.306 L 412.765 382.063 C 412.765 384.553 412.486 385.338 409.589 385.338 L 364.117 385.338 C 360.343 385.338 360.712 383.309 360.712 381.044 L 360.712 361.097 C 360.712 358.545 361.618 357.813 363.887 357.813 L 368.42 357.813 C 370.15 357.813 371.593 358.148 372.614 355.091 C 373.631 352.028 393.691 294.007 395.963 286.757 C 398.225 279.503 405.442 280.183 409.842 280.183 C 413.714 280.183 415.665 280.236 414.983 277.885 C 414.306 275.535 411.25 264.317 407.395 261.368 C 403.54 258.423 397.192 257.967 392.886 259.781 C 388.581 261.595 383.748 266.018 382.841 266.748 C 381.934 267.478 380.687 267.364 379.551 265.89 C 378.419 264.419 370.061 253.889 367.653 250.478 C 365.242 247.067 365.84 246.848 367.993 244.81 C 370.146 242.77 381.62 231.451 403.723 231.451 C 427.291 231.451 435.917 250.822 439.988 261.541 C 444.056 272.257 472.556 350.672 473.58 354.299 C 474.598 357.923 475.732 358.039 477.657 358.039 L 483.551 358.039 C 485.831 358.039 486.384 359.057 486.384 361.55 L 486.384 382.063 C 486.384 384.553 485.652 385.338 483.098 385.338"/>
  </g>
  <g fill="#d91920" clip-path="url(#b)" transform="matrix(.3125 0 0 -.3125 -.026 205.286)"/>
  <rect x="154.796" y="79.644" width="36.442" height="36.442" style="fill-rule: nonzero; paint-order: fill; fill: rgb(217, 25, 32); stroke: rgb(217, 25, 32);" rx="7.824" ry="7.824"/>
  <path d="M 186.327 87.849 C 186.327 89.669 184.851 91.143 183.032 91.143 C 181.212 91.143 179.738 89.669 179.738 87.849 C 179.738 86.03 181.212 84.554 183.032 84.554 C 184.851 84.554 186.327 86.03 186.327 87.849 Z" style="fill: rgb(255, 255, 255); stroke: rgb(255, 255, 255);"/>
  <path d="M 166.503 107.673 C 166.503 109.493 165.027 110.967 163.208 110.967 C 161.388 110.967 159.914 109.493 159.914 107.673 C 159.914 105.854 161.388 104.378 163.208 104.378 C 165.027 104.378 166.503 105.854 166.503 107.673 Z" style="fill: rgb(255, 255, 255); stroke: rgb(255, 255, 255);"/>
  <rect x="141.413" y="40.526" width="36.442" height="36.442" style="fill-rule: nonzero; paint-order: fill; fill: rgb(217, 25, 32); stroke: rgb(217, 25, 32); transform-box: fill-box; transform-origin: 50% 50%;" rx="7.824" ry="7.824" transform="matrix(0, 1, -1, 0, -0.000008, 0)"/>
  <path d="M 163.033 58.466 C 163.033 60.286 161.557 61.76 159.738 61.76 C 157.918 61.76 156.444 60.286 156.444 58.466 C 156.444 56.647 157.918 55.171 159.738 55.171 C 161.557 55.171 163.033 56.647 163.033 58.466 Z" style="fill: rgb(255, 255, 255); stroke: rgb(255, 255, 255);"/>
</svg>